<?xml version="1.0" standalone="no"?>
<!DOCTYPE svg PUBLIC "-//W3C//DTD SVG 20010904//EN"
 "http://www.w3.org/TR/2001/REC-SVG-20010904/DTD/svg10.dtd">
<svg version="1.0" xmlns="http://www.w3.org/2000/svg"
 width="672.000000pt" height="680.000000pt" viewBox="0 0 672.000000 680.000000"
 preserveAspectRatio="xMidYMid meet">

<g transform="translate(0.000000,680.000000) scale(0.100000,-0.100000)"
fill="#000000" stroke="none">
<path d="M0 6511 c0 -244 2 -290 15 -301 8 -7 15 -16 15 -21 0 -5 -7 -6 -15
-3 -26 10 -18 -37 12 -68 27 -28 26 -51 -2 -28 -24 20 -18 1 10 -32 14 -17 32
-44 41 -62 l14 -31 -22 29 c-13 16 -33 41 -45 55 l-22 26 -1 -64 c0 -70 -4
-62 127 -264 35 -53 63 -100 63 -105 0 -4 24 -45 54 -92 30 -47 52 -87 49 -90
-2 -3 -13 6 -24 20 -10 14 -23 30 -27 35 -4 6 -17 25 -27 43 -11 17 -23 32
-27 32 -4 0 -8 6 -8 14 0 7 -7 19 -15 26 -12 10 -15 10 -15 -4 0 -9 -8 -16
-18 -16 -10 0 -19 -7 -19 -15 0 -8 7 -15 14 -15 9 0 13 -7 10 -17 -5 -27 21
-73 42 -73 10 0 23 -12 30 -26 15 -33 7 -43 -11 -15 -7 12 -16 21 -20 21 -13
0 -9 -25 12 -68 19 -39 19 -44 5 -65 -15 -21 -15 -21 -15 10 0 18 -6 33 -15
37 -8 3 -15 10 -15 16 0 6 5 8 11 5 21 -14 -20 62 -55 99 -34 38 -48 65 -26
51 6 -4 -8 30 -32 74 l-43 82 -3 -45 c-2 -25 2 -54 7 -65 6 -11 11 -30 10 -43
0 -22 -1 -22 -9 -3 -6 14 -9 -2 -9 -50 0 -51 3 -65 10 -50 7 14 8 4 4 -35 -2
-30 -1 -47 3 -37 8 20 27 -17 73 -143 20 -55 24 -61 29 -40 6 24 6 24 18 -9 7
-19 12 -46 12 -60 0 -23 1 -24 16 -10 20 21 37 138 22 156 -6 8 -8 16 -4 20 3
3 6 1 6 -5 0 -26 20 -10 21 16 l1 27 8 -28 c5 -17 5 -39 -1 -54 -18 -49 -5
-127 14 -80 3 6 3 -4 0 -23 -4 -19 -12 -44 -19 -55 -7 -11 -16 -39 -20 -63 -5
-35 -4 -41 8 -37 11 5 14 -1 10 -25 -5 -34 13 -41 21 -8 4 12 8 20 11 17 6 -6
-19 -108 -29 -117 -3 -4 -10 0 -15 8 -7 11 -10 7 -10 -15 0 -42 11 -56 31 -42
9 7 18 19 22 27 3 9 6 4 6 -12 1 -15 -3 -29 -9 -33 -10 -6 -2 -35 10 -35 5 0
11 10 13 23 2 12 5 3 6 -20 0 -23 7 -48 14 -55 12 -11 37 -71 37 -87 0 -3 -24
20 -53 50 -51 56 -112 88 -139 74 -7 -4 -5 0 5 8 25 21 21 30 -9 23 -18 -5
-32 -2 -45 10 -11 10 -19 12 -19 6 0 -7 -7 -12 -15 -12 -8 0 -14 3 -14 8 3 20
-2 32 -16 32 -13 0 -15 -23 -15 -148 l0 -149 48 -13 c26 -7 71 -14 100 -14 45
-1 52 -4 48 -18 -3 -14 2 -18 21 -18 19 0 23 -3 16 -12 -19 -25 -23 -47 -8
-41 12 4 13 0 4 -26 -7 -18 -18 -31 -28 -31 -9 0 -21 -4 -26 -9 -6 -5 -26 -13
-45 -18 -30 -8 -35 -14 -35 -39 0 -28 -19 -47 -21 -21 0 6 -2 20 -2 30 -4 36
-17 15 -18 -27 -1 -58 -24 -136 -41 -143 -18 -7 -19 -389 0 -396 9 -4 9 -7 -1
-18 -8 -9 -12 -60 -12 -181 l0 -167 53 6 c35 3 57 11 66 24 7 11 20 19 29 19
8 0 35 20 59 45 23 25 47 45 52 45 17 0 24 22 10 30 -8 6 -1 11 23 15 28 5 38
13 43 33 4 18 2 28 -10 35 -18 9 -39 55 -36 75 1 6 -5 12 -14 12 -8 0 -15 4
-15 10 0 11 44 42 56 39 5 -1 17 1 27 6 15 6 16 10 5 16 -9 6 -4 9 16 9 21 0
27 4 22 15 -4 11 2 15 20 15 14 0 23 4 19 9 -3 6 4 15 15 21 11 6 20 15 20 21
0 16 24 36 38 31 6 -2 12 3 12 12 0 9 5 16 12 16 6 0 3 9 -7 20 -10 11 -14 20
-8 20 5 0 18 -9 28 -20 10 -11 13 -20 8 -20 -22 0 -21 -29 3 -81 15 -33 21
-55 15 -57 -6 -2 -11 -12 -11 -22 0 -19 23 -44 32 -34 3 3 5 -29 3 -71 -1 -54
2 -78 10 -82 9 -3 12 -26 12 -71 -1 -43 5 -78 15 -99 11 -22 13 -34 5 -42 -8
-8 -7 -11 1 -11 8 0 13 -15 12 -42 0 -24 3 -81 6 -128 10 -124 10 -183 0 -204
-7 -13 -6 -17 1 -13 7 5 9 0 6 -13 -3 -11 -9 -17 -14 -14 -5 3 -9 -11 -9 -30
0 -20 -4 -36 -9 -36 -4 0 -11 -29 -14 -65 -4 -39 -13 -72 -22 -81 -19 -20 -19
-28 0 -20 17 6 21 -19 5 -29 -6 -3 -10 -22 -10 -41 0 -21 -7 -40 -19 -50 -11
-10 -16 -24 -13 -36 4 -18 -2 -38 -34 -100 -9 -17 -11 -29 -4 -33 15 -9 12
-25 -4 -25 -26 0 -28 -20 -4 -29 l23 -10 -22 0 c-26 -1 -56 -41 -48 -62 3 -8
-2 -24 -12 -35 -34 -38 -63 -83 -63 -98 0 -9 -9 -20 -20 -26 -11 -6 -18 -15
-15 -19 2 -5 -2 -14 -10 -21 -8 -7 -15 -18 -15 -25 0 -8 -6 -16 -12 -19 -10
-5 -10 -7 0 -12 35 -16 -23 -84 -72 -84 -14 0 -15 -4 -6 -20 10 -18 8 -20 -21
-20 l-32 0 21 -23 c25 -26 19 -42 -9 -26 -11 5 -26 6 -34 1 -13 -7 -13 -11 3
-28 16 -16 17 -22 5 -32 -8 -8 -13 -9 -13 -2 0 11 -29 14 -31 3 -1 -5 -3 -20
-5 -35 -1 -16 -10 -38 -18 -50 -9 -12 -16 -32 -16 -44 0 -12 -7 -35 -15 -50
-17 -34 -19 -54 -5 -54 6 0 10 -4 10 -10 0 -14 -28 -12 -33 3 -7 20 -19 0 -12
-22 3 -12 17 -21 33 -24 l27 -4 -26 -2 c-15 0 -30 -8 -33 -17 -5 -13 -1 -15
20 -10 22 6 25 4 20 -10 -4 -10 1 -25 11 -37 10 -11 14 -22 8 -24 -32 -11 -39
-21 -26 -37 10 -12 10 -20 3 -29 -6 -7 -9 -22 -7 -33 5 -21 -11 -47 -35 -57
-8 -3 1 -5 20 -4 30 2 35 -2 38 -21 2 -13 1 -30 -2 -39 -5 -12 -9 -13 -21 -3
-12 10 -15 9 -15 -9 0 -11 -9 -30 -20 -41 -11 -11 -20 -24 -20 -30 0 -14 23
-13 38 2 6 6 15 9 19 5 3 -4 -8 -25 -25 -46 l-32 -40 0 -515 0 -516 365 0
c348 0 365 1 365 18 0 11 -7 33 -16 51 -8 17 -14 37 -11 44 2 6 -3 18 -10 26
-11 10 -11 16 -3 21 8 5 0 35 -25 100 -40 102 -56 181 -32 159 7 -7 11 -25 9
-39 -3 -20 1 -28 15 -32 12 -3 23 -20 30 -49 20 -78 52 -186 73 -243 16 -43
26 -56 42 -56 15 0 18 4 13 18 -4 9 -11 42 -17 72 -6 30 -23 82 -39 115 -15
32 -25 63 -22 68 7 12 23 -13 23 -35 0 -10 5 -18 10 -18 6 0 10 -9 10 -20 0
-11 4 -20 9 -20 5 0 14 -21 21 -47 6 -27 16 -67 21 -91 8 -31 16 -42 29 -42
16 0 18 6 13 37 -3 21 -12 50 -19 65 -18 36 -17 60 1 28 8 -14 14 -23 15 -20
1 19 -32 152 -44 174 -12 24 -12 33 1 66 14 36 14 42 0 64 -15 22 -13 36 4 36
4 0 10 -12 14 -28 3 -15 20 -43 36 -62 l30 -35 -7 40 c-8 48 -14 57 -15 24 0
-22 -1 -23 -9 -4 -5 11 -9 31 -9 45 -1 20 1 22 9 10 9 -13 10 -13 11 0 0 9 6
4 12 -10 17 -36 39 -63 62 -76 11 -6 25 -20 30 -30 28 -53 34 -59 44 -46 6 10
10 3 16 -24 7 -40 55 -101 55 -71 0 8 -7 17 -15 21 -8 3 -15 14 -15 25 0 26
-21 74 -37 84 -7 4 -13 14 -13 22 0 27 -104 195 -210 340 l-52 70 56 -58 c31
-32 56 -64 56 -72 0 -8 3 -15 8 -15 4 0 28 -27 52 -60 25 -34 56 -73 69 -88
l23 -27 -6 30 c-12 55 -55 129 -105 185 -28 30 -51 58 -51 61 0 4 -16 24 -35
45 -33 37 -42 54 -29 54 9 0 94 -90 94 -100 0 -5 4 -12 10 -15 33 -21 -86 180
-140 235 -17 17 -30 41 -30 53 0 12 -18 42 -40 67 -27 31 -35 47 -27 52 18 12
27 10 27 -6 0 -7 7 -20 17 -27 15 -13 15 -12 5 8 -12 21 0 44 13 24 3 -6 12
-8 19 -5 8 3 17 1 21 -5 3 -6 -1 -11 -11 -11 -14 0 -12 -5 9 -22 14 -13 70
-65 123 -115 53 -51 99 -93 101 -93 9 0 -18 38 -54 75 -21 22 -38 47 -38 55
-1 8 -7 14 -14 12 -7 -1 -10 1 -7 6 3 5 -39 55 -94 112 -54 57 -97 107 -95
111 3 4 -18 26 -45 50 -28 24 -50 50 -50 58 0 12 3 12 18 -1 9 -9 22 -13 29
-11 6 2 16 -4 22 -14 9 -17 108 -123 114 -123 2 0 4 8 4 18 0 20 -34 76 -71
115 -30 32 -36 57 -8 36 9 -8 20 -18 24 -24 4 -5 9 -7 12 -5 2 3 -8 21 -24 40
-22 26 -31 32 -41 23 -11 -8 -18 -7 -28 4 -12 13 -11 14 8 8 12 -4 21 -2 21 4
0 6 -4 11 -9 11 -5 0 -17 12 -27 28 l-18 27 37 -30 c65 -53 176 -166 182 -186
4 -10 11 -19 16 -19 5 0 9 -7 9 -15 0 -8 8 -15 18 -15 25 0 78 -57 74 -81 -2
-10 2 -19 7 -19 6 0 11 -6 11 -12 0 -16 73 -88 88 -88 6 0 9 7 5 16 -3 8 -12
13 -20 9 -11 -4 -14 0 -10 14 3 14 -3 25 -18 35 -12 8 -30 22 -39 31 -16 16
-16 18 1 31 10 8 14 13 8 12 -5 -1 -35 23 -65 53 -31 29 -66 62 -78 72 -13 10
-20 22 -16 28 3 6 -3 13 -14 16 -11 2 -32 27 -47 54 l-26 49 23 9 c19 7 25 5
32 -13 29 -71 38 -85 56 -91 22 -7 27 -25 8 -25 -27 0 8 -15 44 -19 4 -1 5 -7
3 -13 -3 -7 8 -21 25 -30 16 -9 30 -15 30 -12 0 7 -22 48 -29 54 -10 9 -41 68
-41 79 0 6 5 11 10 11 6 0 10 -7 10 -15 0 -8 5 -15 10 -15 6 0 25 -33 44 -73
36 -79 77 -121 108 -112 11 4 18 1 18 -7 0 -7 25 -39 55 -70 34 -36 52 -63 49
-73 -6 -15 34 -90 43 -81 3 3 -4 21 -16 41 -28 48 -27 56 4 23 14 -15 25 -32
25 -38 0 -5 4 -10 8 -10 8 0 32 -43 32 -57 0 -3 -9 4 -19 16 -11 13 -24 20
-29 17 -13 -8 -54 41 -76 92 -24 54 -146 167 -146 136 0 -4 16 -29 35 -55 19
-27 35 -53 35 -58 0 -5 7 -14 15 -21 8 -7 15 -21 15 -31 0 -11 4 -19 9 -19 4
0 28 -27 52 -60 24 -33 47 -60 52 -60 5 0 5 -9 2 -21 -4 -13 0 -27 11 -40 9
-10 15 -21 12 -24 -3 -3 -17 10 -31 28 -14 19 -24 36 -22 38 8 9 -82 102 -92
96 -14 -9 -5 -44 12 -51 9 -3 12 0 8 10 -13 35 9 9 33 -38 39 -77 99 -154 177
-230 39 -38 72 -68 73 -68 10 0 1 28 -16 50 -11 14 -20 35 -20 47 0 12 -22 45
-50 75 -34 36 -50 47 -50 35 0 -9 -5 -17 -11 -17 -6 0 -8 8 -4 20 3 11 -1 30
-11 45 -10 16 -12 25 -5 25 6 0 15 -11 20 -23 7 -17 16 -23 33 -22 16 1 39
-14 76 -51 28 -30 52 -57 52 -61 0 -5 -4 -1 -10 7 -5 8 -12 11 -16 7 -4 -4 7
-20 24 -36 20 -17 30 -34 27 -43 -4 -9 0 -22 7 -29 8 -8 35 -40 61 -73 54 -66
192 -198 199 -190 3 3 17 -9 31 -26 14 -16 32 -30 39 -30 7 0 28 -9 47 -21 18
-11 35 -18 38 -15 7 7 -135 142 -146 138 -5 -2 -12 1 -15 7 -3 5 -14 7 -25 4
-11 -3 -21 2 -25 13 -9 22 0 30 18 15 8 -7 25 -14 38 -15 42 -6 68 -18 68 -31
0 -12 79 -85 91 -85 12 0 2 74 -10 78 -8 3 -11 0 -7 -7 4 -6 2 -11 -4 -11 -14
0 -41 26 -38 37 2 4 -12 24 -30 43 -21 21 -31 41 -29 52 3 10 2 16 -2 14 -4
-3 -16 9 -26 27 -10 18 -22 34 -25 37 -4 3 -15 19 -24 35 -10 17 -15 21 -11
10 3 -13 -4 -8 -22 15 -15 19 -28 40 -28 47 0 6 -17 30 -37 52 -21 21 -38 46
-38 55 0 8 -4 18 -10 21 -5 3 -10 11 -10 17 0 6 6 6 15 -2 9 -7 18 -10 22 -7
3 4 -6 16 -20 28 -15 11 -27 30 -27 42 0 25 -20 62 -20 38 0 -11 -3 -11 -15
-1 -8 7 -12 16 -9 21 5 8 -31 67 -50 80 -11 9 0 39 14 39 5 0 10 -4 10 -9 0
-12 49 -66 61 -67 5 -1 18 -2 29 -3 12 -1 22 -11 26 -26 4 -16 13 -25 25 -25
10 0 28 -9 39 -20 24 -24 40 -26 40 -5 0 8 -6 15 -13 15 -7 0 -21 11 -31 25
-10 14 -23 25 -28 25 -5 0 -20 11 -35 24 -15 14 -33 22 -44 19 -13 -4 -19 0
-19 11 0 9 -4 16 -8 16 -5 0 -14 11 -22 24 -15 28 -50 31 -50 4 0 -24 -21 -23
-27 2 -3 11 -9 20 -13 20 -17 0 -39 31 -33 46 5 13 9 12 27 -5 24 -22 46 -27
46 -11 0 6 -7 10 -15 10 -8 0 -15 7 -15 15 0 8 -5 15 -10 15 -6 0 -16 11 -22
25 -6 14 -17 25 -25 25 -7 0 -18 11 -23 24 -5 14 -18 30 -30 36 -15 8 -19 17
-15 33 5 16 4 18 -3 8 -8 -12 -15 -9 -36 15 -14 16 -26 33 -26 37 0 5 -5 5
-10 2 -6 -3 -10 1 -10 9 0 9 -4 16 -10 16 -5 0 -10 6 -10 14 0 8 -7 16 -15 20
-8 3 -15 12 -15 20 0 8 -9 17 -19 21 -11 3 -23 15 -26 26 -4 10 -20 26 -36 34
-29 15 -37 30 -20 37 4 2 5 12 0 23 -7 18 -8 18 -8 -4 l-1 -25 -20 22 c-12 12
-22 36 -23 52 -1 17 -8 30 -15 30 -7 0 -22 16 -33 35 -12 19 -24 35 -29 35 -4
0 -13 15 -20 33 -7 17 -23 46 -34 62 -12 17 -32 50 -45 75 -13 25 -36 63 -51
85 -14 22 -34 58 -44 80 -9 22 -22 50 -28 62 -6 11 -8 27 -5 35 4 9 6 8 6 -3
1 -9 11 -19 23 -23 18 -4 20 -8 10 -18 -15 -15 -16 -32 -2 -23 6 4 18 -11 28
-32 20 -43 82 -131 82 -116 0 6 -11 26 -24 45 -13 20 -36 64 -51 99 -15 35
-31 71 -36 79 -4 8 -19 34 -32 56 -16 27 -23 54 -22 76 2 19 -1 41 -6 49 -7
11 -9 10 -10 -6 l0 -20 -9 20 c-12 28 -12 37 0 30 5 -3 10 -1 10 4 0 26 20 7
44 -40 34 -69 119 -200 125 -193 3 2 12 -10 21 -28 47 -91 95 -174 106 -181 7
-4 15 -20 19 -36 4 -20 15 -33 35 -39 26 -10 61 -52 43 -52 -10 -1 28 -30 39
-30 16 0 7 20 -9 21 -12 0 -13 2 -5 6 10 4 9 9 -4 24 -9 10 -23 40 -30 66 -7
27 -13 42 -13 36 -1 -18 -31 -16 -31 2 0 8 9 15 20 15 34 0 26 53 -12 86 -18
15 -25 25 -16 21 9 -3 18 -1 21 6 2 6 12 -3 22 -21 29 -49 45 -42 38 17 -3 31
-1 51 6 55 7 5 11 47 11 120 0 76 4 118 13 130 11 15 13 4 13 -71 -1 -48 3
-104 7 -123 6 -25 5 -31 -2 -20 -6 8 -11 11 -12 5 0 -5 -2 -26 -5 -45 -7 -56
-6 -72 1 -132 4 -32 11 -58 16 -58 10 0 20 33 16 51 -2 8 -2 11 0 7 9 -15 23
-8 23 12 0 11 -7 20 -15 20 -13 0 -14 13 -10 78 2 43 9 89 14 103 l9 24 6 -30
c4 -16 11 -47 17 -68 7 -28 7 -42 -2 -53 -7 -9 -8 -14 -1 -14 6 0 18 -3 28 -7
12 -5 15 -3 9 6 -5 10 -2 11 13 7 22 -7 25 0 37 99 6 48 5 52 -20 65 -19 10
-25 20 -21 35 3 11 6 71 6 133 0 87 3 113 13 109 8 -2 12 -26 12 -68 2 -179 5
-213 17 -200 10 9 13 59 13 181 0 92 3 172 8 176 4 4 7 0 7 -9 0 -9 5 -16 11
-14 6 1 14 -4 17 -12 3 -8 0 -11 -7 -7 -8 5 -11 -10 -11 -51 -1 -129 -10 -270
-20 -308 -6 -22 -13 -56 -16 -75 -3 -19 -10 -45 -16 -57 -8 -17 -6 -27 8 -47
11 -14 27 -28 37 -31 9 -4 17 -15 17 -26 0 -11 -4 -18 -9 -15 -20 12 -20 -29
-1 -66 11 -22 18 -44 14 -49 -3 -6 4 -21 17 -35 12 -13 18 -24 13 -24 -5 0 -4
-4 3 -8 6 -4 14 -30 16 -57 3 -28 3 -42 0 -32 -3 10 -11 21 -19 24 -9 3 -12
13 -8 29 5 18 2 24 -10 24 -9 0 -16 5 -16 11 0 6 -6 9 -14 6 -8 -3 -17 -1 -19
6 -9 24 -29 -49 -24 -89 4 -39 54 -183 68 -194 3 -3 18 -31 32 -63 14 -32 33
-65 42 -73 17 -18 20 -34 5 -34 -5 0 -10 4 -10 9 0 5 -6 11 -14 14 -18 7 -10
-25 13 -50 9 -10 30 -44 45 -75 28 -57 55 -73 35 -21 -5 14 -8 28 -5 30 2 2
10 -13 17 -34 20 -62 51 -101 82 -106 26 -3 28 -2 22 21 -5 19 -3 23 9 19 8
-3 16 2 19 13 7 26 -1 30 -29 20 -24 -9 -24 -9 -24 55 0 35 -4 67 -10 70 -6 4
-10 -6 -10 -21 0 -16 -4 -24 -8 -19 -8 10 -40 83 -63 143 -7 19 -17 31 -24 28
-7 -2 -18 1 -24 7 -8 8 -11 8 -11 -1 0 -46 -67 68 -75 128 -5 39 -19 96 -30
123 -4 9 -3 17 2 17 5 0 25 -48 43 -107 20 -64 43 -117 57 -130 24 -25 43 -30
43 -12 0 17 -39 129 -56 161 -16 31 -18 52 -4 43 6 -4 8 -10 5 -14 -2 -5 4
-16 14 -25 10 -9 26 -42 36 -74 10 -31 28 -83 40 -115 18 -48 23 -54 28 -36 4
14 -1 31 -14 47 -25 33 -27 102 -1 103 11 0 7 5 -12 13 -37 17 -61 69 -43 97
6 10 18 17 25 14 8 -3 17 -5 22 -5 4 0 10 -19 12 -42 3 -24 17 -70 32 -102 33
-72 56 -136 56 -157 0 -8 11 -30 25 -49 14 -19 25 -42 25 -52 0 -9 14 -40 30
-68 17 -28 28 -55 25 -60 -3 -5 12 -21 35 -35 22 -14 40 -30 40 -35 0 -6 7
-10 15 -10 19 0 19 -31 0 -113 -16 -71 -25 -147 -16 -147 3 0 17 -9 31 -21
l25 -20 -40 7 c-22 4 -46 11 -52 17 -9 6 -13 6 -13 -1 0 -5 6 -12 14 -15 8 -3
20 -16 27 -29 12 -22 12 -22 -15 -5 -26 17 -36 11 -15 -10 8 -8 6 -15 -9 -24
-25 -16 -17 -39 14 -39 17 0 24 -6 24 -19 0 -23 80 -92 147 -128 26 -13 52
-31 56 -39 4 -8 15 -14 22 -14 8 0 15 -7 15 -15 0 -9 9 -15 21 -15 22 0 92
-30 86 -36 -2 -3 -21 3 -41 11 -20 9 -41 13 -47 9 -5 -3 -30 10 -54 30 -24 20
-46 36 -50 36 -4 0 -19 8 -33 18 -15 10 -40 19 -55 21 l-29 3 23 -24 c13 -13
57 -49 99 -80 89 -69 120 -98 120 -116 0 -7 5 -10 11 -6 6 4 42 -26 83 -69 39
-41 82 -78 95 -82 16 -5 20 -10 12 -18 -20 -20 17 -47 66 -47 31 0 42 3 37 12
-5 8 -2 9 12 2 11 -5 895 -10 2191 -12 l2173 -2 0 3400 0 3400 -2385 0 c-2135
0 -2385 -2 -2385 -15 0 -9 -7 -18 -16 -22 -8 -3 -20 -16 -25 -29 -6 -18 -16
-24 -39 -24 -16 0 -30 4 -30 9 0 5 -13 14 -30 20 -23 7 -30 16 -30 35 l0 26
-94 0 c-109 0 -103 15 -62 -150 14 -58 26 -113 26 -122 0 -14 8 -18 33 -18 43
0 65 -37 57 -95 -5 -38 -7 -40 -42 -43 -43 -4 -54 -23 -32 -58 9 -13 12 -24 8
-24 -5 0 -2 -5 6 -10 12 -7 15 -39 16 -161 1 -138 3 -152 20 -162 27 -14 34
-27 34 -62 0 -23 -3 -27 -10 -15 -8 12 -10 10 -10 -10 -1 -49 -10 -53 -101
-41 -46 6 -96 14 -111 17 -21 5 -29 2 -34 -12 -8 -21 -55 -73 -66 -74 -8 0 -8
49 0 64 2 4 8 3 11 -3 5 -8 13 -7 27 3 15 12 16 17 7 27 -18 18 -54 -1 -76
-40 -16 -27 -16 -31 -3 -31 9 0 16 -4 16 -10 0 -15 -21 -12 -42 7 -11 9 -38
18 -61 19 -23 1 -50 2 -59 3 -10 1 -18 8 -18 17 0 14 -3 14 -15 4 -17 -14 -28
-10 -17 5 8 12 71 35 95 35 9 0 17 5 17 10 0 6 5 10 11 10 5 0 7 -6 3 -12 -5
-7 9 2 30 20 21 18 51 36 68 39 23 4 36 18 60 60 41 72 49 59 11 -17 -35 -71
-30 -85 37 -94 25 -3 54 -7 66 -10 17 -3 20 1 21 30 1 19 8 46 17 59 23 34 37
210 19 235 -7 10 -14 32 -15 49 -2 25 -6 31 -19 28 -11 -3 -16 0 -13 7 3 9 -4
11 -26 8 -16 -2 -37 1 -45 8 -12 10 -15 9 -15 -4 0 -9 -4 -16 -10 -16 -5 0
-10 5 -10 11 0 7 -44 9 -130 7 -72 -2 -130 0 -130 3 0 13 58 33 100 34 88 3
100 5 100 20 0 7 6 18 13 22 14 9 35 41 43 66 4 9 14 17 23 18 10 0 11 3 4 6
-10 3 -10 7 0 18 7 7 15 11 19 8 5 -2 4 7 -1 20 -6 14 -7 28 -3 32 4 4 -3 3
-15 -4 -12 -6 -24 -19 -27 -29 -3 -9 -22 -26 -41 -36 -19 -11 -35 -22 -35 -26
0 -9 -55 -70 -63 -70 -17 0 -4 24 32 61 21 22 49 60 61 84 13 24 30 52 39 62
21 23 16 67 -7 60 -9 -2 -24 -6 -32 -8 -10 -3 -16 8 -20 38 -8 52 -13 58 -39
43 -23 -12 -87 -4 -108 13 -10 7 -13 3 -13 -16 0 -19 -6 -26 -26 -30 -19 -3
-24 -1 -20 9 4 11 -1 13 -22 8 -15 -4 -34 -10 -42 -14 -8 -4 -35 -11 -60 -15
-25 -4 -59 -16 -76 -26 -32 -19 -94 -17 -94 3 0 16 32 21 41 7 7 -12 9 -11 9
1 0 9 17 24 38 35 20 11 60 41 87 67 l50 48 -141 0 c-115 0 -144 -3 -154 -15
-42 -51 -290 -193 -290 -167 0 4 28 22 63 40 34 18 89 58 122 88 l60 54 -65 0
-64 0 -58 -57 c-48 -48 -59 -54 -72 -44 -18 15 -9 39 27 79 l20 22 -37 0 c-23
0 -48 -8 -63 -20 -25 -19 -53 -27 -53 -14 0 4 8 13 18 20 14 10 -24 13 -220
14 l-238 0 0 -289z m892 142 c10 -9 18 -27 18 -39 0 -20 -5 -23 -36 -22 -41 1
-68 -19 -54 -42 7 -12 12 -12 22 -2 17 17 38 15 38 -3 0 -16 -43 -31 -59 -20
-6 3 -11 13 -11 21 0 17 -16 19 -26 3 -12 -19 -25 7 -18 35 6 26 74 86 97 86
6 0 19 -7 29 -17z m401 -15 c-9 -50 -22 -80 -31 -74 -5 3 -21 -4 -38 -15 -117
-80 -204 -117 -204 -89 0 6 5 10 10 10 5 0 9 4 7 8 -4 13 55 72 88 88 17 8 53
34 80 59 28 24 60 44 72 45 20 0 22 -4 16 -32z m-873 -12 c0 -20 -22 -56 -35
-56 -19 0 -19 6 3 35 15 22 32 32 32 21z m660 -1 c0 -2 -15 -19 -33 -37 -17
-18 -46 -53 -64 -77 -17 -24 -41 -50 -52 -58 -20 -14 -21 -13 -21 36 l0 50 68
45 c58 39 102 57 102 41z m242 -25 c1 -9 -1 -17 -7 -18 -5 -1 -11 10 -13 25
-4 29 13 23 20 -7z m-991 -2 c-11 -30 -37 -46 -51 -32 -8 8 -2 17 22 32 41 27
39 27 29 0z m993 -92 c-3 -9 -15 -21 -25 -27 -18 -9 -18 -9 -2 26 16 34 40 36
27 1z m-1030 -21 c20 -31 21 -55 0 -55 -9 0 -31 -7 -49 -16 -47 -22 -69 -15
-73 21 -7 61 89 101 122 50z m956 -47 c-12 -29 -29 -70 -38 -91 -12 -29 -13
-40 -4 -49 7 -7 12 -22 12 -35 0 -20 -4 -22 -24 -17 -26 6 -58 -7 -92 -38 -22
-19 -22 -19 -37 2 -9 12 -20 19 -26 16 -14 -9 -91 5 -91 16 0 6 11 8 25 6 14
-3 28 -1 31 3 3 5 12 9 20 9 9 0 32 17 53 38 20 20 47 44 59 52 12 8 41 42 64
75 65 93 82 98 48 13z m2788 22 c12 -16 22 -34 22 -40 0 -6 4 -18 9 -28 19
-34 51 -108 51 -116 0 -17 102 -216 110 -216 4 0 10 5 12 12 5 14 76 18 103 5
22 -10 105 -97 105 -109 0 -5 15 -8 33 -8 35 0 86 -27 130 -68 15 -14 27 -23
27 -19 0 4 9 -2 20 -13 22 -22 26 -60 8 -78 -14 -14 -77 -16 -97 -3 -16 10
-78 -5 -97 -24 -12 -11 -19 -34 -41 -122 -3 -15 -13 -23 -26 -23 -11 0 -17 -3
-14 -7 4 -3 -3 -13 -14 -21 -17 -12 -23 -12 -29 -2 -17 27 -30 -2 -25 -53 4
-46 3 -48 -6 -24 -9 23 -16 27 -33 23 -20 -5 -22 -2 -18 24 3 21 -5 44 -28 80
-18 27 -36 50 -40 50 -5 0 -16 21 -26 48 -42 112 -56 92 -48 -68 8 -150 3
-164 -70 -200 l-45 -21 -33 24 c-18 14 -44 28 -58 32 -41 11 -147 64 -160 80
-7 8 -19 15 -26 15 -8 0 -22 9 -32 21 -9 11 -30 27 -47 34 -36 17 -78 54 -94
84 -7 11 -17 21 -25 21 -7 0 -37 23 -67 51 -49 46 -57 50 -81 41 -23 -8 -27
-7 -32 12 -16 59 6 86 69 86 39 0 91 -15 105 -30 3 -3 19 -12 35 -20 17 -8 35
-20 40 -26 6 -6 46 -26 90 -45 44 -18 87 -38 95 -45 16 -12 44 -25 162 -73 85
-34 105 -37 131 -17 22 17 22 49 -3 120 -11 32 -19 61 -18 64 1 4 -1 14 -4 22
-4 8 -12 38 -19 65 -15 61 -27 87 -38 81 -4 -3 -6 6 -3 19 3 17 -1 27 -13 31
-13 5 -14 9 -3 15 8 6 9 12 3 17 -5 4 -10 27 -11 52 -1 49 -35 173 -41 153 -3
-7 -9 -13 -14 -13 -6 0 -7 6 0 17 5 11 5 26 0 42 -10 26 -4 74 15 103 7 12 23
18 47 18 28 0 40 -6 57 -30z m2569 -186 c23 -24 36 -46 36 -63 0 -33 -41 -79
-81 -91 -26 -7 -33 -5 -46 15 -9 13 -24 26 -35 30 -35 11 -34 75 2 90 12 6 23
20 25 33 5 37 55 30 99 -14z m-6507 11 c0 -8 -2 -15 -4 -15 -2 0 -6 7 -10 15
-3 8 -1 15 4 15 6 0 10 -7 10 -15z m1428 -80 c-2 -19 0 -35 4 -35 4 0 8 5 8
11 0 8 5 8 15 -1 18 -15 19 -42 3 -58 -17 -17 -28 -15 -29 6 -1 9 -5 1 -10
-18 -9 -32 -20 -41 -117 -92 -105 -56 -174 -77 -208 -64 -26 10 -2 30 99 83
100 53 167 107 203 165 13 21 27 38 30 38 4 0 4 -16 2 -35z m-343 15 c17 -27
-45 -74 -68 -51 -7 7 -2 13 16 20 15 6 27 17 27 26 0 17 16 20 25 5z m203 -2
c-2 -6 -13 -12 -24 -14 -19 -3 -19 -3 0 12 24 17 29 18 24 2z m-798 -44 c0 -8
-7 -14 -15 -14 -15 0 -21 21 -9 33 10 9 24 -2 24 -19z m3367 -26 c-3 -7 -5 -2
-5 12 0 14 2 19 5 13 2 -7 2 -19 0 -25z m-3377 -8 c0 -5 -4 -10 -10 -10 -5 0
-10 5 -10 10 0 6 5 10 10 10 6 0 10 -4 10 -10z m-493 -62 c-8 -5 -2 -18 19
-40 53 -57 49 -77 -5 -23 -54 53 -60 65 -36 65 11 0 14 7 10 28 l-6 27 15 -25
c10 -18 11 -27 3 -32z m945 -163 c1 -14 -62 -47 -78 -41 -14 5 -24 -15 -24
-50 l0 -24 -20 20 c-11 11 -26 20 -34 20 -25 0 -76 -22 -76 -33 0 -8 -3 -7 -9
1 -12 19 -2 58 19 77 25 23 99 32 111 14 7 -11 9 -10 9 5 0 11 5 16 14 13 8
-3 27 -2 43 3 33 10 44 8 45 -5z m-262 -75 c0 -13 -11 -13 -30 0 -12 8 -11 10
8 10 12 0 22 -4 22 -10z m214 1 c7 -11 -22 -23 -35 -15 -5 3 -7 10 -4 15 8 12
32 12 39 0z m86 -7 c0 -2 -16 -4 -36 -4 -19 0 -33 4 -30 8 5 8 66 4 66 -4z
m47 0 c-3 -3 -12 -4 -19 -1 -8 3 -5 6 6 6 11 1 17 -2 13 -5z m-239 -43 c-2
-10 3 -15 12 -13 10 1 9 -3 -5 -13 -10 -8 -24 -14 -30 -12 -12 4 -19 33 -11
52 7 20 37 7 34 -14z m257 0 c-6 -11 -113 -26 -122 -17 -10 10 40 25 85 25 24
1 41 -3 37 -8z m937 -27 c-4 -32 -62 -101 -62 -72 0 9 9 37 20 63 22 51 47 57
42 9z m-742 0 c0 -3 -13 -31 -29 -62 -16 -31 -43 -87 -59 -123 -16 -36 -42
-77 -57 -91 -23 -22 -26 -30 -20 -58 4 -18 10 -28 14 -23 10 16 160 61 184 55
34 -8 38 -24 14 -50 -18 -20 -19 -24 -7 -32 19 -12 90 -13 90 -1 0 5 -6 12
-12 14 -7 3 -2 6 11 6 16 1 21 5 17 16 -3 8 -2 14 2 14 4 -1 18 2 31 6 32 11
81 115 81 173 0 47 14 50 23 5 7 -35 -2 -85 -14 -77 -5 3 -9 -3 -9 -13 0 -11
-5 -24 -12 -31 -7 -7 -9 -12 -5 -12 3 0 2 -11 -3 -24 -7 -19 -5 -28 11 -42 21
-18 26 -44 8 -44 -5 0 -7 -5 -3 -12 4 -7 3 -8 -5 -4 -16 10 -41 -12 -41 -36 0
-15 5 -18 16 -14 14 5 15 4 4 -9 -15 -18 -55 -11 -85 15 -11 10 -45 23 -75 30
-30 7 -80 19 -110 28 -97 26 -127 27 -134 4 -9 -29 -83 -46 -113 -27 -21 14
-24 13 -48 -19 -14 -19 -33 -59 -42 -90 -15 -55 -35 -72 -47 -40 -3 8 -11 12
-17 9 -12 -8 -38 23 -38 45 0 11 3 10 14 -4 8 -11 15 -17 15 -13 0 18 -44 115
-70 152 -36 53 -38 69 -7 59 12 -3 27 -10 32 -14 6 -5 39 -13 75 -20 36 -6 75
-18 87 -26 21 -13 22 -13 12 16 -6 16 -19 30 -30 32 -14 2 -16 7 -9 18 7 12
12 12 21 3 9 -9 19 -7 41 12 22 19 41 25 77 25 43 0 51 4 84 42 45 52 48 73
10 63 -44 -11 -213 -32 -218 -27 -3 3 -5 14 -5 24 0 10 -4 18 -10 18 -5 0 -10
11 -10 24 0 21 6 24 58 31 194 24 215 30 262 74 32 29 50 38 50 25z m196 -36
c4 -6 3 -8 -4 -4 -6 3 -13 -2 -15 -11 -4 -14 -5 -13 -6 5 -1 23 13 30 25 10z
m101 -10 c-3 -8 -6 -5 -6 6 -1 11 2 17 5 13 3 -3 4 -12 1 -19z m879 5 c21 -28
16 -60 -11 -81 -14 -11 -25 -30 -25 -44 0 -13 -5 -29 -12 -36 -9 -9 -7 -13 8
-18 32 -12 54 -36 54 -60 0 -45 -86 -62 -112 -22 -14 21 -15 21 -37 -25 -25
-52 -39 -57 -66 -27 -18 19 -18 22 -1 56 15 33 14 80 -2 70 -4 -2 -17 0 -29 5
-45 17 -15 89 37 89 16 0 32 -5 35 -11 9 -14 55 29 55 51 0 19 28 54 50 63 27
10 43 7 56 -10z m-2237 -68 c-3 -2 -16 10 -29 28 l-23 32 29 -27 c15 -15 26
-30 23 -33z m1063 3 c-7 -7 -12 -8 -12 -2 0 14 12 26 19 19 2 -3 -1 -11 -7
-17z m803 -8 c12 -19 -5 -47 -40 -66 -38 -20 -41 -24 -24 -41 7 -7 9 -23 5
-37 -5 -21 -13 -26 -35 -26 -16 0 -31 -6 -34 -12 -2 -7 -7 -10 -11 -7 -4 4 0
14 9 22 8 9 15 21 15 27 0 6 7 13 15 16 22 9 18 21 -9 28 -19 5 -22 11 -18 33
8 45 40 73 83 73 21 0 41 -5 44 -10z m-133 -41 c-10 -19 -24 -35 -32 -35 -8
-1 -22 -5 -31 -8 -12 -6 -16 0 -17 23 -1 32 20 56 40 49 7 -3 22 -2 33 2 27
10 27 9 7 -31z m-1834 -13 c0 -22 -3 -23 -20 -13 -15 10 -16 13 -3 15 8 2 15
8 15 13 0 5 2 9 4 9 2 0 4 -11 4 -24z m1368 2 c-17 -55 -17 -55 -31 -28 -12
23 -12 26 8 32 12 3 23 6 24 7 1 1 1 -5 -1 -11z m-1216 -8 c0 -5 -2 -10 -4
-10 -3 0 -8 5 -11 10 -3 6 -1 10 4 10 6 0 11 -4 11 -10z m137 4 c-3 -3 -12 -4
-19 -1 -8 3 -5 6 6 6 11 1 17 -2 13 -5z m1428 -11 c-8 -20 -9 -27 -7 -65 1
-16 9 -28 20 -31 13 -3 10 -7 -12 -16 -39 -16 -58 -7 -54 24 2 13 0 24 -4 25
-5 0 -12 0 -16 0 -5 0 -9 -15 -10 -32 -1 -37 -37 -75 -56 -59 -7 6 -18 4 -30
-5 -17 -12 -21 -11 -31 3 -7 9 -17 13 -23 9 -17 -11 -14 -26 5 -26 14 0 14 -2
-2 -20 -25 -28 -35 -25 -35 10 0 19 -7 33 -20 40 -26 14 -27 60 -1 60 10 0 24
7 31 15 7 8 18 14 24 13 6 -1 23 6 38 16 17 11 35 15 48 11 13 -4 20 -2 20 7
0 26 24 38 73 38 43 0 48 -2 42 -17z m-498 -23 c32 -25 14 -41 -45 -39 -45 2
-52 5 -52 22 0 43 51 52 97 17z m-1222 -10 c3 -5 1 -10 -4 -10 -6 0 -11 5 -11
10 0 6 2 10 4 10 3 0 8 -4 11 -10z m615 6 c0 -2 3 -11 6 -20 4 -11 0 -16 -12
-16 -23 1 -56 24 -47 33 7 8 53 10 53 3z m-590 -36 c0 -5 -2 -10 -4 -10 -3 0
-8 5 -11 10 -3 6 -1 10 4 10 6 0 11 -4 11 -10z m-75 -39 c3 -5 1 -12 -5 -16
-5 -3 -10 1 -10 9 0 18 6 21 15 7z m2095 -46 c0 -35 -16 -48 -26 -20 -5 11
-11 12 -24 5 -11 -6 -21 -6 -24 -2 -10 16 25 52 50 52 21 0 24 -5 24 -35z
m-1453 3 c-3 -8 -6 -5 -6 6 -1 11 2 17 5 13 3 -3 4 -12 1 -19z m753 12 c-20
-13 -33 -13 -25 0 3 6 14 10 23 10 15 0 15 -2 2 -10z m470 -34 c-1 -25 -22
-56 -39 -56 -15 0 -12 71 3 82 16 11 36 -3 36 -26z m50 4 c0 -5 -5 -10 -11
-10 -5 0 -7 5 -4 10 3 6 8 10 11 10 2 0 4 -4 4 -10z m-1908 -55 c9 -20 9 -20
-6 -1 -9 11 -16 27 -15 35 0 14 1 14 6 1 3 -8 10 -24 15 -35z m2357 24 c20
-16 23 -24 14 -37 -13 -22 -34 -26 -89 -17 -51 7 -60 33 -22 59 30 22 68 19
97 -5z m-704 -27 c-3 -16 -1 -40 4 -54 7 -19 6 -31 -5 -44 -13 -18 -14 -18
-28 -1 -12 16 -19 17 -55 7 -45 -12 -65 -6 -57 16 3 9 -2 14 -14 14 -11 0 -20
5 -20 11 0 5 -4 7 -10 4 -5 -3 -7 0 -4 8 6 17 90 30 131 21 21 -4 24 -3 13 5
-16 11 -15 13 15 29 31 18 37 14 30 -16z m-1505 -22 c0 -11 -2 -20 -4 -20 -2
0 -6 9 -9 20 -3 11 -1 20 4 20 5 0 9 -9 9 -20z m1040 -3 c40 -29 80 -67 80
-76 0 -12 -17 -23 -44 -28 -76 -12 -101 -20 -98 -32 2 -8 -3 -11 -10 -9 -7 3
-22 -4 -32 -15 -19 -20 -19 -20 5 -14 13 4 59 7 101 7 70 0 77 2 84 22 4 13
16 36 28 53 11 16 22 32 23 34 2 2 6 2 9 -2 4 -3 -1 -25 -11 -49 -9 -24 -19
-54 -22 -67 -5 -30 -60 -147 -85 -182 -25 -34 -16 -52 40 -80 26 -13 49 -25
51 -26 1 -1 0 -7 -4 -13 -4 -7 -17 -4 -38 9 -24 14 -37 17 -50 10 -9 -6 -17
-7 -16 -2 1 4 1 11 0 16 -1 9 -61 -20 -61 -31 0 -4 -7 -16 -15 -26 -12 -15
-17 -17 -29 -7 -13 11 -16 9 -21 -12 -4 -14 -15 -33 -26 -43 -10 -9 -19 -23
-19 -31 0 -24 -20 -13 -26 15 -3 15 -7 33 -10 40 -2 6 1 12 6 12 6 0 10 -4 10
-10 0 -5 5 -10 11 -10 5 0 8 4 4 9 -3 6 3 14 12 20 11 7 14 14 8 18 -5 5 -15
17 -21 28 -6 11 -26 25 -44 31 -18 6 -38 17 -44 25 -6 8 -20 13 -32 11 -12 -2
-38 7 -58 18 -39 24 -47 35 -18 26 9 -3 44 -8 76 -11 33 -3 64 -8 69 -12 5 -3
12 0 16 6 5 8 16 8 39 0 24 -8 39 -8 62 3 16 7 30 16 30 20 0 5 7 8 15 8 8 0
15 -6 15 -12 0 -9 4 -8 10 2 8 12 10 13 10 1 0 -26 48 29 66 76 20 52 14 62
-23 36 -49 -34 -116 -53 -218 -63 -86 -8 -102 -7 -117 7 -11 10 -18 12 -18 5
0 -7 -7 -12 -15 -12 -18 0 -19 10 -3 47 16 36 28 44 54 38 18 -4 20 -1 16 25
-3 25 -1 29 12 24 9 -4 16 -1 16 6 0 8 -8 10 -22 5 -59 -18 -63 -14 -60 45 5
95 36 128 63 68 8 -18 24 -37 37 -43 12 -5 22 -16 22 -23 0 -8 9 -12 23 -10
12 2 21 5 19 8 -2 3 4 22 12 42 9 21 16 52 16 69 l0 32 62 -7 c34 -4 69 -13
78 -19z m1230 9 c0 -2 -7 -9 -15 -16 -12 -10 -15 -10 -15 4 0 9 7 16 15 16 8
0 15 -2 15 -4z m-320 -10 c0 -11 -19 -15 -25 -6 -3 5 1 10 9 10 9 0 16 -2 16
-4z m404 -2 c9 -3 16 -12 16 -20 0 -17 1 -17 33 -5 14 6 28 7 31 4 8 -9 -24
-43 -41 -43 -7 0 -13 -9 -13 -20 0 -20 -44 -49 -56 -37 -13 13 -22 81 -13 103
9 25 17 28 43 18z m1699 -56 c22 -30 25 -45 30 -166 l5 -132 -24 27 c-12 15
-21 30 -18 35 3 4 0 8 -6 8 -6 0 -16 12 -23 28 -6 15 -14 29 -17 32 -3 3 -10
14 -16 25 -7 11 -18 19 -25 18 -8 -2 -19 9 -26 22 -6 14 -7 25 -3 25 5 0 11
18 15 40 5 32 11 40 28 41 12 0 16 3 10 6 -24 9 -13 23 16 23 22 0 36 -9 54
-32z m-3529 13 c3 -5 -1 -11 -9 -14 -9 -4 -12 -1 -8 9 6 16 10 17 17 5z m46
-61 c16 -47 9 -59 -18 -32 -25 25 -36 69 -19 75 18 6 22 2 37 -43z m1706 39
c10 -16 -22 -43 -42 -35 -16 6 -16 8 1 26 20 23 31 25 41 9z m-2299 -46 c-3
-10 -5 -2 -5 17 0 19 2 27 5 18 2 -10 2 -26 0 -35z m124 -100 c5 -13 5 -23 0
-23 -8 0 -71 122 -71 137 0 10 61 -88 71 -114z m-104 20 c-3 -10 -5 -2 -5 17
0 19 2 27 5 18 2 -10 2 -26 0 -35z m1371 -10 c-2 -22 -9 -28 -30 -30 l-28 -2
22 30 c27 36 40 37 36 2z m-1342 -16 c-1 -13 -6 -28 -10 -35 -10 -17 6 -15 30
3 43 33 32 11 -22 -40 -32 -30 -59 -55 -61 -55 -2 0 -3 17 -3 37 0 34 1 35 14
17 14 -18 15 -18 21 -1 4 9 5 31 3 47 -3 21 0 30 10 30 9 0 12 6 8 16 -3 8 -2
12 3 9 5 -3 9 -16 7 -28z m1254 -5 c0 -32 -16 -53 -36 -45 -28 10 -13 73 17
73 14 0 19 -7 19 -28z m-615 -16 c23 9 25 -13 2 -35 -12 -11 -34 -32 -49 -47
-25 -24 -29 -25 -48 -11 -23 16 -50 61 -50 82 0 9 11 13 30 13 17 -1 33 1 36
5 3 3 19 1 35 -3 17 -5 36 -7 44 -4z m595 -66 c0 -9 -9 -25 -20 -35 -17 -16
-18 -20 -6 -34 23 -26 6 -96 -25 -104 -10 -3 -19 -1 -19 4 0 5 5 9 10 9 19 0
10 48 -12 62 -21 14 -21 14 -3 61 18 49 39 69 62 60 7 -3 13 -13 13 -23z
m-1011 -61 c3 -11 -1 -10 -19 2 -13 9 -26 22 -29 30 -3 11 1 10 19 -2 13 -9
26 -22 29 -30z m457 -44 c57 -24 108 -85 133 -160 l22 -67 -26 -34 c-29 -38
-52 -47 -35 -13 14 25 7 34 -17 24 -21 -10 -111 -15 -135 -9 -11 3 -18 21 -23
54 -4 28 -11 50 -16 50 -15 0 -34 79 -22 91 8 8 16 3 27 -17 l15 -29 1 32 c0
17 -4 35 -10 38 -5 3 -10 17 -10 31 0 20 5 24 30 24 17 0 46 -7 66 -15z m1370
-82 c-8 -8 -36 5 -36 17 0 7 6 7 21 0 11 -7 18 -14 15 -17z m-2074 -5 c-7 -7
-12 -8 -12 -2 0 14 12 26 19 19 2 -3 -1 -11 -7 -17z m1031 -14 c-17 -26 -36
-27 -41 -3 -2 14 36 39 50 32 4 -2 0 -15 -9 -29z m935 -19 c-3 -3 -9 2 -12 12
-6 14 -5 15 5 6 7 -7 10 -15 7 -18z m692 5 c-6 -11 -13 -20 -15 -20 -3 0 -5 9
-5 20 0 11 7 20 15 20 13 0 14 -4 5 -20z m-825 -14 c55 -22 94 -51 100 -73 3
-13 12 -23 19 -23 17 0 28 -24 20 -44 -3 -8 -27 -17 -55 -21 -52 -7 -73 1 -84
33 -2 10 -27 32 -55 51 -53 36 -66 69 -30 78 11 3 20 10 20 15 0 6 8 7 18 3 9
-4 31 -13 47 -19z m695 -65 c41 -43 84 -89 95 -104 11 -15 31 -28 45 -29 20
-3 25 2 30 26 7 39 24 43 54 12 28 -31 40 -80 26 -106 -12 -22 -13 -40 -2 -39
27 5 30 -4 27 -76 -3 -58 0 -84 16 -119 26 -60 50 -171 67 -316 6 -53 15 -75
45 -115 21 -27 48 -63 60 -80 44 -60 121 -136 143 -141 47 -12 36 -34 -65
-137 -55 -56 -121 -131 -147 -167 -82 -113 -124 -159 -140 -153 -7 3 -14 9
-14 15 0 5 5 6 12 2 8 -5 9 -2 5 11 -4 9 -3 23 2 29 15 18 39 126 46 211 4 44
11 85 15 90 12 15 29 109 35 195 5 64 4 71 -7 50 -7 -14 -15 -27 -18 -30 -4
-3 -17 -35 -30 -72 -27 -78 -98 -158 -181 -203 -43 -23 -61 -27 -117 -25 -37
1 -78 1 -91 1 -13 -1 -60 17 -105 38 -44 22 -108 50 -141 62 -62 23 -115 69
-115 100 0 21 -39 34 -125 44 -53 6 -95 23 -179 72 -14 9 -16 13 -6 13 16 0
-58 69 -75 70 -5 0 -3 5 5 10 12 8 11 12 -8 30 -21 20 -22 24 -9 43 7 11 38
34 68 50 53 29 77 50 107 95 18 28 11 37 -18 22 -54 -29 -30 16 41 74 l23 19
-32 16 c-28 13 -39 13 -75 2 -61 -18 -114 -23 -121 -12 -7 11 58 80 77 82 43
5 69 4 73 -2 2 -4 14 -5 26 -1 18 4 20 2 16 -16 -5 -19 -2 -22 27 -22 22 0 43
-9 61 -25 15 -14 33 -24 41 -21 7 3 15 0 19 -5 4 -7 10 -7 18 1 8 9 5 16 -11
30 -13 10 -23 21 -23 24 0 11 -72 77 -111 101 -21 14 -39 30 -39 35 0 6 -6 9
-12 8 -20 -4 -22 69 -3 89 20 20 5 33 -39 33 -24 0 -27 -2 -16 -15 7 -8 9 -15
4 -16 -5 0 0 -4 11 -9 16 -7 17 -9 3 -9 -9 -1 -28 10 -42 23 -28 26 -33 38
-13 35 31 -4 39 0 25 15 -31 32 -49 58 -44 63 2 3 34 -9 69 -26 77 -37 94 -38
149 -10 37 19 43 19 53 6 16 -23 60 0 120 63 90 93 129 130 140 130 5 1 24 12
40 25 27 23 36 24 95 19 l65 -6 75 -77z m-1598 -31 c-25 -24 -46 -26 -38 -4 3
9 6 24 6 34 0 10 8 26 17 36 17 16 18 16 27 -15 8 -26 6 -35 -12 -51z m161 10
c-3 -11 -10 -23 -16 -27 -5 -3 -8 -2 -5 3 3 5 8 17 11 27 9 24 16 22 10 -3z
m1607 -10 c0 -17 -19 -20 -34 -4 -21 21 -11 37 15 24 10 -6 19 -15 19 -20z
m-1740 -80 c0 -5 -2 -10 -4 -10 -3 0 -8 5 -11 10 -3 6 -1 10 4 10 6 0 11 -4
11 -10z m940 -10 c0 -5 -8 -10 -17 -10 -15 0 -16 2 -3 10 19 12 20 12 20 0z
m-920 -14 c0 -2 3 -13 6 -23 5 -14 4 -15 -4 -3 -9 12 -18 7 -54 -29 -24 -23
-67 -54 -95 -68 -45 -22 -57 -25 -79 -14 -34 15 -26 34 17 42 19 3 43 11 54
17 11 6 36 19 55 27 58 27 80 39 80 47 0 5 5 8 10 8 6 0 10 -2 10 -4z m-278
-31 c18 5 20 4 8 -4 -15 -10 -16 -15 -19 -55 -1 -16 -4 -15 -22 8 -13 16 -24
23 -28 17 -4 -5 -26 -13 -50 -17 -42 -7 -43 -6 -30 14 19 31 58 50 68 33 6
-10 10 -9 15 4 5 14 9 15 21 5 8 -6 24 -9 37 -5z m-585 -107 c-3 -7 -5 -2 -5
12 0 14 2 19 5 13 2 -7 2 -19 0 -25z m528 7 c0 -14 -8 -21 -27 -23 -30 -4 -36
10 -15 33 17 20 42 14 42 -10z m346 15 c21 -12 28 -70 8 -70 -6 0 -20 -11 -31
-25 -32 -41 -56 -29 -48 25 1 8 6 18 12 21 5 3 10 12 11 20 3 17 16 39 23 39
3 0 14 -5 25 -10z m-242 -29 c20 -13 0 -37 -34 -44 -19 -3 -25 0 -25 12 0 33
31 50 59 32z m-195 -27 c10 -27 7 -44 -8 -38 -15 6 -28 39 -18 48 10 10 20 6
26 -10z m234 -41 c2 -8 -6 -13 -21 -13 -31 0 -57 9 -57 20 0 13 73 6 78 -7z
m-818 -51 c0 -20 -39 -47 -51 -35 -10 10 -1 24 26 40 26 15 25 16 25 -5z m30
-32 c0 -5 -5 -10 -11 -10 -5 0 -7 5 -4 10 3 6 8 10 11 10 2 0 4 -4 4 -10z
m555 -27 c4 -14 2 -23 -4 -23 -6 0 -11 3 -11 8 0 4 -3 18 -6 32 -8 31 11 16
21 -17z m462 -147 c4 -6 -11 2 -33 19 -42 32 -94 82 -94 91 0 8 118 -94 127
-110z m-1197 82 c0 -13 3 -18 8 -12 4 6 15 11 25 11 22 0 22 -32 2 -82 -13
-30 -19 -34 -30 -25 -8 6 -19 9 -24 6 -18 -12 -22 15 -10 69 12 56 29 74 29
33z m484 6 c3 -8 2 -12 -4 -9 -6 3 -10 10 -10 16 0 14 7 11 14 -7z m-398 -99
c-22 -17 -36 -19 -36 -7 0 14 12 22 34 22 21 -1 21 -1 2 -15z m779 -5 c-3 -5
-11 -10 -16 -10 -6 0 -7 5 -4 10 3 6 11 10 16 10 6 0 7 -4 4 -10z m-824 -43
c-10 -9 -11 -8 -5 6 3 10 9 15 12 12 3 -3 0 -11 -7 -18z m800 1 c25 -28 24
-48 -1 -48 -12 0 -31 -11 -44 -25 -28 -30 -40 -31 -59 -5 -7 10 -24 24 -38 29
-23 9 -23 10 -2 10 12 1 23 5 25 10 4 12 70 51 87 51 7 0 22 -10 32 -22z
m-866 -26 c-3 -3 -11 0 -18 7 -9 10 -8 11 6 5 10 -3 15 -9 12 -12z m464 -45
c-2 -1 -15 -11 -29 -22 l-25 -20 19 23 c11 12 24 22 29 22 6 0 8 -1 6 -3z
m368 -82 c0 -8 -4 -15 -9 -15 -4 0 -8 7 -8 15 0 8 4 15 8 15 5 0 9 -7 9 -15z
m18 -35 c3 -5 1 -10 -4 -10 -6 0 -11 5 -11 10 0 6 2 10 4 10 3 0 8 -4 11 -10z
m3673 -101 c28 -25 20 -39 -22 -39 -36 0 -56 15 -56 42 0 25 50 24 78 -3z
m-3888 -80 c0 -5 -3 -9 -8 -9 -9 0 -31 68 -24 75 6 5 32 -50 32 -66z m-80 -17
c0 -21 -2 -24 -10 -12 -13 20 -13 53 0 45 6 -3 10 -18 10 -33z m110 -33 c0 -6
-4 -7 -10 -4 -5 3 -10 11 -10 16 0 6 5 7 10 4 6 -3 10 -11 10 -16z m-29 -73
c6 -22 5 -25 -6 -16 -17 14 -27 52 -12 47 6 -2 14 -16 18 -31z m496 -48 c-3
-8 -6 -5 -6 6 -1 11 2 17 5 13 3 -3 4 -12 1 -19z m-432 -84 c6 -41 2 -65 -9
-53 -7 9 -13 99 -6 99 4 0 11 -21 15 -46z m2605 -22 c0 -5 -9 -17 -20 -27 -16
-14 -20 -15 -20 -4 0 16 19 39 32 39 4 0 8 -4 8 -8z m-2640 -107 c14 -19 14
-19 -2 -6 -10 7 -18 18 -18 24 0 6 1 8 3 6 1 -2 9 -13 17 -24z m700 -1 c0 -2
-12 -4 -27 -4 -21 0 -24 3 -14 9 13 8 41 5 41 -5z m1630 -143 c0 -5 -7 -14
-15 -21 -12 -10 -15 -10 -15 2 0 8 3 18 7 21 9 10 23 9 23 -2z m-76 -109 c-24
-48 -46 -56 -74 -27 l-23 24 29 12 c16 7 38 14 48 16 11 2 22 6 25 8 12 12 10
-5 -5 -33z m-1754 -132 c0 -5 -4 -10 -10 -10 -5 0 -10 5 -10 10 0 6 5 10 10
10 6 0 10 -4 10 -10z m721 -36 c9 -8 15 -23 12 -34 -4 -16 -8 -17 -27 -7 -31
18 -56 39 -56 49 0 14 53 9 71 -8z m-1296 -3 c3 -5 1 -12 -5 -16 -5 -3 -10 1
-10 9 0 18 6 21 15 7z m1107 -43 c64 -44 60 -53 -23 -62 -34 -3 -64 -8 -66
-10 -2 -2 24 -32 57 -66 108 -113 115 -150 26 -150 -50 0 -57 3 -70 28 -22 42
-76 89 -128 112 -27 11 -48 25 -48 31 0 5 20 19 45 31 45 22 58 38 31 38 -34
0 -23 20 26 49 61 36 97 36 150 -1z m281 -19 c24 -19 37 -39 37 -54 0 -29 -18
-42 -26 -20 -4 9 -19 22 -35 31 -22 11 -29 22 -29 44 0 38 6 37 53 -1z m1403
-44 c22 -64 22 -70 7 -87 -15 -17 -17 -17 -27 4 -17 34 -31 31 -50 -12 -27
-62 -57 -49 -31 14 20 48 19 53 -15 71 -26 13 -29 19 -20 35 13 24 28 25 52 3
17 -15 19 -14 29 16 6 18 16 30 22 28 5 -1 20 -34 33 -72z m-142 -49 c20 -77
16 -101 -14 -91 -11 3 -20 0 -24 -10 -9 -24 -24 -17 -31 15 -7 33 -25 41 -25
11 0 -11 -4 -23 -10 -26 -6 -4 -10 19 -10 63 0 54 4 72 18 85 14 13 21 14 30
5 9 -9 13 -7 18 5 13 35 31 14 48 -57z m-2294 21 c0 -5 -4 -5 -10 -2 -5 3 -10
14 -10 23 0 15 2 15 10 2 5 -8 10 -19 10 -23z m197 -29 c-3 -7 -5 -2 -5 12 0
14 2 19 5 13 2 -7 2 -19 0 -25z m1934 -53 c10 -110 -18 -116 -42 -8 -13 58 -7
86 18 81 14 -3 19 -17 24 -73z m-56 -30 c8 -30 12 -61 9 -70 -9 -23 -31 -18
-38 10 -11 43 -42 24 -48 -30 -2 -22 -9 -31 -26 -33 -13 -2 -25 -9 -28 -16 -3
-7 -28 -23 -57 -36 -29 -12 -59 -26 -68 -31 -13 -6 -18 -3 -22 12 -8 30 -23
23 -40 -21 -8 -22 -24 -43 -34 -47 -10 -3 -35 -17 -55 -30 -30 -18 -38 -20
-38 -8 0 8 -5 15 -11 15 -6 0 -9 -6 -6 -14 7 -18 -21 -58 -35 -50 -6 4 -19 -3
-28 -16 -10 -13 -22 -20 -29 -16 -19 12 -13 91 9 117 19 23 20 23 35 5 14 -18
15 -18 25 8 5 15 10 30 10 34 1 13 38 52 49 52 7 0 14 7 17 15 11 28 21 15 28
-35 8 -63 20 -70 35 -21 15 51 14 61 -5 61 -9 0 -14 7 -12 18 2 11 13 17 32
17 23 1 32 7 39 28 13 40 31 28 39 -28 4 -26 12 -53 17 -58 7 -7 11 -7 11 -1
0 5 14 18 30 27 33 20 43 55 13 42 -56 -23 -72 -12 -30 22 13 10 27 24 32 32
8 14 -6 13 -47 -4 -31 -12 -24 49 8 74 31 24 44 26 44 7 0 -25 31 -27 50 -4
l18 23 7 -27 c4 -16 12 -28 19 -28 22 0 39 18 34 38 -3 10 -1 27 5 37 9 16 10
17 19 1 5 -9 16 -41 23 -71z m-1736 -45 c0 -25 0 -25 -16 4 -8 16 -17 43 -19
60 l-4 31 19 -35 c11 -19 20 -46 20 -60z m-102 58 c-3 -8 -6 -5 -6 6 -1 11 2
17 5 13 3 -3 4 -12 1 -19z m310 -40 c38 -39 90 -130 107 -185 6 -17 3 -23 -8
-23 -9 0 -16 -5 -16 -11 0 -6 8 -8 19 -4 26 8 33 -18 19 -65 -11 -34 -15 -38
-39 -33 -14 3 -39 -2 -55 -10 -33 -16 -82 -7 -97 18 -6 11 -12 13 -20 6 -7 -5
-28 -11 -47 -13 -28 -2 -40 3 -65 29 -27 27 -30 37 -27 78 4 41 5 44 18 28 16
-22 18 -3 2 31 -9 21 -8 33 7 66 10 22 21 40 24 40 4 0 15 14 25 30 17 29 63
57 96 59 9 1 34 -18 57 -41z m-447 8 c0 -31 19 -85 40 -116 18 -25 46 -168 35
-178 -11 -11 -19 11 -27 76 -5 42 -19 88 -37 123 -34 65 -44 119 -21 119 6 0
10 -11 10 -24z m125 -103 c-3 -24 -11 -43 -16 -43 -5 0 -7 10 -5 23 3 12 8 49
13 82 7 56 8 57 11 20 2 -22 1 -59 -3 -82z m47 87 c3 -16 1 -35 -4 -42 -5 -8
-8 -9 -8 -2 0 6 -3 26 -6 43 -4 18 -2 31 4 31 5 0 12 -13 14 -30z m613 -40 c4
-6 11 -8 16 -5 14 9 11 -8 -7 -33 -21 -30 -41 -28 -59 8 -8 16 -15 31 -15 35
0 9 59 5 65 -5z m-821 -148 c3 -56 1 -102 -3 -102 -7 0 -9 7 -15 95 -4 56 2
120 10 112 2 -2 6 -49 8 -105z m326 -152 c10 16 90 -7 112 -32 10 -11 19 -14
23 -8 3 5 21 10 38 10 l32 -1 -24 -19 c-13 -11 -29 -20 -37 -20 -8 0 -14 -9
-14 -21 0 -19 -1 -19 -16 -5 -11 11 -35 16 -83 16 -72 0 -88 8 -96 50 -6 33 2
41 32 29 19 -7 28 -6 33 1z m-492 -55 c14 -29 -2 -34 -18 -6 -12 24 -13 31 -2
31 5 0 14 -11 20 -25z m-89 -79 c-1 -17 -2 -16 -9 6 -4 14 -11 32 -15 40 -3 7
1 4 9 -6 9 -11 16 -29 15 -40z m658 17 c5 -14 -57 -47 -104 -56 -31 -6 -33 -4
-33 20 0 45 22 59 81 53 29 -3 54 -10 56 -17z m-444 -93 c5 -38 4 -42 -7 -28
-7 10 -13 39 -14 65 -1 57 12 33 21 -37z m190 -2 c-3 -21 -10 -38 -15 -38 -6
0 -7 7 -4 16 3 9 6 30 6 47 0 18 4 27 9 22 4 -6 6 -27 4 -47z m-318 32 c3 -5
1 -10 -4 -10 -6 0 -11 5 -11 10 0 6 2 10 4 10 3 0 8 -4 11 -10z m64 -49 c1
-35 -5 -22 -12 24 -5 28 -4 34 3 20 5 -11 9 -31 9 -44z m534 32 c4 -3 1 -13
-5 -21 -10 -11 -9 -17 6 -28 22 -15 19 -42 -13 -151 -11 -40 -21 -82 -21 -93
0 -11 -9 -28 -20 -37 -19 -17 -19 -17 1 -31 11 -8 18 -20 15 -27 -3 -8 4 -25
15 -38 27 -36 24 -42 -21 -42 -38 0 -40 2 -40 29 0 20 -13 45 -41 78 -22 26
-36 48 -30 48 5 0 16 -9 25 -21 l14 -21 12 21 c9 17 8 22 -5 27 -15 6 -22 25
-7 23 19 -3 25 2 12 11 -10 7 -12 12 -4 18 16 11 36 52 25 52 -5 0 -12 -8 -17
-17 -5 -13 -10 1 -15 42 -4 34 -3 64 2 70 5 5 9 16 9 24 0 11 -4 10 -15 -5
-14 -19 -14 -18 -15 4 0 16 14 32 53 57 53 35 69 40 80 28z m-573 -34 c0 -6
-4 -7 -10 -4 -5 3 -10 11 -10 16 0 6 5 7 10 4 6 -3 10 -11 10 -16z m-220 -61
c0 -16 -11 -7 -30 25 -28 46 -25 57 5 17 14 -19 25 -38 25 -42z m70 -136 c0
-7 -4 -10 -10 -7 -5 3 -10 11 -10 17 0 5 -8 22 -19 36 -10 15 -21 38 -25 52
-4 14 8 2 28 -30 20 -30 36 -60 36 -68z m755 11 c-9 -37 -25 -53 -25 -26 0 29
10 53 22 53 6 0 7 -11 3 -27z m-165 -35 c0 -12 -7 -10 -24 8 -9 8 -16 23 -16
32 0 13 5 11 20 -8 11 -14 20 -28 20 -32z m-656 6 c9 -24 2 -26 -12 -4 -7 11
-8 20 -3 20 5 0 12 -7 15 -16z m187 -191 c35 -39 51 -74 32 -73 -10 1 -104
124 -121 159 -11 22 -8 20 19 -9 17 -19 49 -54 70 -77z m627 85 c-6 -18 -28
-21 -28 -4 0 9 7 16 16 16 9 0 14 -5 12 -12z m72 -1 c0 -7 -6 -21 -13 -31 -13
-18 -14 -18 -21 -1 -6 18 9 45 25 45 5 0 9 -6 9 -13z m-952 -82 c-3 -3 -9 2
-12 12 -6 14 -5 15 5 6 7 -7 10 -15 7 -18z m-120 -73 c8 -7 12 -15 10 -17 -2
-3 -20 12 -39 32 -30 33 -13 24 29 -15z m192 -67 c0 -11 -14 7 -31 40 -7 13
-3 12 10 -5 11 -14 21 -29 21 -35z m-155 35 c3 -5 1 -10 -4 -10 -6 0 -11 5
-11 10 0 6 2 10 4 10 3 0 8 -4 11 -10z m260 -20 c3 -5 2 -10 -4 -10 -5 0 -13
5 -16 10 -3 6 -2 10 4 10 5 0 13 -4 16 -10z m179 -19 c29 -31 14 -39 -16 -8
-15 15 -21 27 -14 27 7 0 21 -9 30 -19z m-324 -46 c0 -4 -9 4 -20 18 -11 14
-20 28 -20 32 0 4 9 -4 20 -18 11 -14 20 -28 20 -32z m50 24 c0 -8 4 -8 14 0
11 9 16 9 22 0 4 -7 2 -15 -4 -17 -7 -2 -10 -8 -6 -13 3 -5 -1 -9 -9 -9 -7 0
-19 11 -25 25 -7 15 -8 25 -2 25 6 0 10 -5 10 -11z m-92 -57 c7 -22 -13 -12
-33 16 l-19 27 24 -16 c13 -9 26 -21 28 -27z m432 -17 c0 -5 -9 1 -20 15 -11
14 -20 30 -20 35 0 6 9 -1 20 -15 11 -14 20 -29 20 -35z m-220 1 c0 -7 10 -25
21 -40 30 -38 17 -43 -15 -6 -25 30 -37 78 -16 65 6 -3 10 -12 10 -19z m274
-62 c9 -24 2 -26 -12 -4 -7 11 -8 20 -3 20 5 0 12 -7 15 -16z m-54 -34 c0 -5
-2 -10 -4 -10 -3 0 -8 5 -11 10 -3 6 -1 10 4 10 6 0 11 -4 11 -10z m-971 -58
c0 -24 -1 -25 -9 -7 -12 28 -12 47 0 40 6 -3 10 -18 9 -33z m3430 -39 c17 -27
41 -59 52 -73 19 -25 18 -60 -2 -60 -4 0 -23 21 -40 48 -18 26 -41 55 -52 64
-14 12 -18 25 -13 43 4 14 10 25 15 25 4 0 22 -21 40 -47z m-2453 -41 c-9 -8
-26 10 -26 26 1 15 2 15 15 -2 8 -11 13 -21 11 -24z m4278 32 c28 -11 17 -24
-20 -24 -31 0 -35 2 -24 15 14 17 21 18 44 9z m-4744 -27 c1 -20 42 -64 47
-49 6 17 23 15 23 -3 0 -29 -44 -16 -67 20 -13 19 -23 40 -23 45 0 15 20 2 20
-13z m641 -109 c17 -24 18 -29 6 -19 -18 14 -42 51 -33 51 3 0 15 -15 27 -32z
m-540 -65 c13 -16 12 -17 -3 -4 -10 7 -18 15 -18 17 0 8 8 3 21 -13z m634 -22
c3 -5 1 -12 -5 -16 -5 -3 -10 1 -10 9 0 18 6 21 15 7z m55 -84 c33 -55 87
-136 120 -177 22 -28 25 -40 10 -40 -5 0 -15 10 -21 22 -6 12 -23 33 -36 47
-13 14 -31 40 -39 56 -26 56 -81 135 -87 128 -4 -3 -7 -2 -7 4 0 14 11 23 21
18 4 -3 22 -29 39 -58z m-75 -47 c3 -5 1 -10 -4 -10 -6 0 -11 5 -11 10 0 6 2
10 4 10 3 0 8 -4 11 -10z m15 -30 c0 -5 -5 -10 -11 -10 -5 0 -7 5 -4 10 3 6 8
10 11 10 2 0 4 -4 4 -10z m190 -237 c-1 -10 -39 39 -40 51 0 5 9 -3 20 -17 11
-14 20 -29 20 -34z m-924 -30 c-3 -4 -6 -1 -6 5 0 19 -20 14 -21 -5 0 -15 -2
-15 -8 2 -5 11 -4 25 2 33 8 10 13 8 24 -8 8 -12 12 -24 9 -27z m888 31 c5
-14 4 -15 -9 -4 -17 14 -19 20 -6 20 5 0 12 -7 15 -16z m103 -6 c-3 -8 -6 -5
-6 6 -1 11 2 17 5 13 3 -3 4 -12 1 -19z m-23 -53 c16 -22 33 -43 39 -46 5 -4
5 -9 0 -12 -8 -5 -103 84 -103 98 0 19 39 -6 64 -40z m86 -20 c-1 -5 -12 3
-25 18 -14 15 -25 33 -25 40 1 7 12 -1 25 -18 14 -16 25 -34 25 -40z m-1019
-12 c33 -65 35 -71 13 -48 -11 11 -26 34 -34 50 -8 17 -16 33 -18 38 -2 4 0 7
5 7 5 0 20 -21 34 -47z m1224 19 c-3 -3 -11 0 -18 7 -9 10 -8 11 6 5 10 -3 15
-9 12 -12z m956 -34 c28 -34 24 -55 -6 -27 -23 22 -33 49 -19 49 3 0 14 -10
25 -22z m-2015 -75 c14 -19 20 -64 6 -47 -13 14 -32 64 -25 64 3 0 12 -8 19
-17z m-91 -7 c8 -7 12 -16 9 -18 -2 -3 0 -18 6 -34 11 -29 11 -29 -8 -9 -17
19 -36 75 -25 75 2 0 11 -6 18 -14z m1450 -171 c19 -15 18 -15 -12 -1 -17 9
-35 21 -39 27 -8 13 21 -1 51 -26z m-1330 -25 c3 -5 1 -10 -4 -10 -6 0 -11 5
-11 10 0 6 2 10 4 10 3 0 8 -4 11 -10z m1550 -40 c10 -11 16 -20 13 -20 -3 0
-13 9 -23 20 -10 11 -16 20 -13 20 3 0 13 -9 23 -20z m-1715 -66 c17 -31 29
-58 27 -60 -2 -2 -18 23 -36 56 -41 76 -34 79 9 4z m1820 -44 c0 -5 -2 -10 -4
-10 -3 0 -8 5 -11 10 -3 6 -1 10 4 10 6 0 11 -4 11 -10z"/>
<path d="M4312 5787 c-25 -48 -27 -85 -7 -141 8 -22 11 -44 8 -49 -3 -6 -1 -7
5 -3 10 6 28 82 23 100 -1 5 3 12 8 16 7 4 8 17 1 40 -5 19 -7 42 -5 51 12 36
-12 26 -33 -14z"/>
<path d="M1060 5410 c-37 -37 -16 -55 28 -24 13 9 31 13 42 9 22 -7 26 5 8 23
-18 18 -56 14 -78 -8z m30 0 c0 -5 -5 -10 -11 -10 -5 0 -7 5 -4 10 3 6 8 10
11 10 2 0 4 -4 4 -10z"/>
<path d="M1099 5363 c-13 -15 -12 -15 9 -4 23 12 28 21 13 21 -5 0 -15 -7 -22
-17z"/>
<path d="M982 5191 c2 -7 7 -12 11 -12 12 1 9 15 -3 20 -7 2 -11 -2 -8 -8z"/>
<path d="M2605 4655 c-66 -12 -90 -21 -119 -44 -70 -57 -77 -66 -85 -119 -8
-49 -7 -53 14 -58 31 -8 115 48 163 108 11 13 10 16 -5 14 -9 0 -19 7 -21 17
-4 20 34 25 41 5 5 -14 61 33 78 64 13 23 3 25 -66 13z"/>
<path d="M2533 4452 c-44 -23 -42 -36 2 -15 19 9 35 20 35 25 0 10 2 10 -37
-10z"/>
<path d="M2326 4100 c-4 -25 -2 -76 4 -114 6 -38 8 -71 5 -74 -3 -3 2 -14 12
-24 17 -19 68 -25 78 -9 3 5 19 12 36 16 34 8 118 86 120 113 1 9 1 24 0 32
-1 8 8 22 20 30 11 8 28 20 36 26 8 6 14 17 12 25 -6 24 -63 5 -79 -26 -7 -14
-19 -25 -25 -25 -7 0 -18 -6 -24 -14 -13 -16 -82 -29 -105 -20 -9 3 -16 12
-16 19 0 8 -6 20 -13 27 -7 7 -16 21 -20 31 -4 10 -11 16 -16 13 -5 -4 -11 0
-14 6 -2 7 -8 -7 -11 -32z"/>
<path d="M2835 4057 c-11 -8 -49 -29 -85 -48 -36 -18 -85 -48 -109 -66 -24
-18 -50 -33 -58 -33 -20 0 -147 -128 -168 -170 -14 -27 -15 -37 -4 -56 7 -13
21 -24 33 -24 11 0 40 -10 65 -22 51 -25 153 -28 194 -7 41 22 115 84 135 114
25 39 37 106 16 98 -8 -3 -14 -9 -14 -14 0 -14 -48 -61 -59 -57 -6 1 4 19 20
38 57 64 80 126 83 215 1 44 -15 55 -49 32z m20 -89 c-37 -130 -214 -271 -299
-239 -17 6 -1 26 106 134 116 117 129 127 163 127 33 0 36 -2 30 -22z"/>
<path d="M111 4174 c0 -11 3 -14 6 -6 3 7 2 16 -1 19 -3 4 -6 -2 -5 -13z"/>
<path d="M1500 2570 c0 -5 5 -10 11 -10 5 0 7 5 4 10 -3 6 -8 10 -11 10 -2 0
-4 -4 -4 -10z"/>
<path d="M1467 2441 c3 -12 10 -21 15 -21 13 0 6 32 -9 37 -7 3 -9 -3 -6 -16z"/>
<path d="M1512 2377 c-6 -7 -7 -18 -3 -26 7 -11 11 -9 20 7 13 24 -1 39 -17
19z"/>
<path d="M1177 6759 l-27 -41 33 7 c46 10 77 32 77 55 0 28 -20 25 -21 -2 l0
-23 -11 23 c-15 30 -20 28 -51 -19z"/>
<path d="M1348 6769 c-5 -32 6 -38 21 -12 7 14 12 15 24 5 12 -10 15 -8 15 12
0 20 -5 24 -28 24 -23 -1 -29 -6 -32 -29z"/>
<path d="M1590 6328 c0 -7 13 -13 30 -14 32 -1 40 10 14 20 -25 10 -44 7 -44
-6z"/>
<path d="M1662 6124 c-1 -19 2 -43 8 -52 7 -13 9 -3 10 36 0 58 -14 72 -18 16z"/>
<path d="M1620 5883 c0 -13 5 -23 10 -23 13 0 13 11 0 30 -8 12 -10 11 -10 -7z"/>
<path d="M40 4845 c7 -8 20 -15 28 -15 13 0 12 3 -4 15 -25 19 -40 19 -24 0z"/>
<path d="M120 4466 c0 -9 5 -16 10 -16 6 0 10 4 10 9 0 6 -4 13 -10 16 -5 3
-10 -1 -10 -9z"/>
<path d="M100 4395 c0 -8 4 -15 10 -15 5 0 7 7 4 15 -4 8 -8 15 -10 15 -2 0
-4 -7 -4 -15z"/>
<path d="M140 4406 c0 -2 7 -7 16 -10 8 -3 12 -2 9 4 -6 10 -25 14 -25 6z"/>
<path d="M38 4373 c7 -3 16 -2 19 1 4 3 -2 6 -13 5 -11 0 -14 -3 -6 -6z"/>
<path d="M62 4345 c-16 -12 -26 -13 -42 -5 -18 10 -20 8 -19 -22 1 -18 3 -25
6 -15 2 9 8 15 13 12 11 -7 80 23 80 35 0 14 -12 12 -38 -5z"/>
<path d="M490 3864 c0 -8 5 -12 10 -9 6 4 8 11 5 16 -9 14 -15 11 -15 -7z"/>
<path d="M540 3800 c0 -5 5 -10 11 -10 5 0 7 5 4 10 -3 6 -8 10 -11 10 -2 0
-4 -4 -4 -10z"/>
<path d="M550 2609 c0 -5 5 -7 10 -4 6 3 10 8 10 11 0 2 -4 4 -10 4 -5 0 -10
-5 -10 -11z"/>
<path d="M270 2029 c0 -5 5 -7 10 -4 6 3 10 8 10 11 0 2 -4 4 -10 4 -5 0 -10
-5 -10 -11z"/>
<path d="M1230 1931 c0 -12 4 -21 9 -21 5 0 11 -10 15 -22 5 -19 8 -21 16 -8
15 22 12 40 -5 34 -9 -4 -15 0 -15 9 0 9 -4 19 -10 22 -5 3 -10 -3 -10 -14z"/>
<path d="M1146 1875 c-3 -8 -1 -15 4 -15 6 0 10 7 10 15 0 8 -2 15 -4 15 -2 0
-6 -7 -10 -15z"/>
<path d="M1214 1868 c3 -7 7 -25 10 -40 7 -29 26 -39 26 -13 0 20 -22 65 -31
65 -5 0 -7 -6 -5 -12z"/>
<path d="M886 1757 c3 -10 9 -15 12 -12 3 3 0 11 -7 18 -10 9 -11 8 -5 -6z"/>
<path d="M1280 1746 c0 -9 5 -16 10 -16 6 0 10 4 10 9 0 6 -4 13 -10 16 -5 3
-10 -1 -10 -9z"/>
<path d="M35 1710 c-3 -5 3 -10 14 -10 12 0 21 5 21 10 0 6 -6 10 -14 10 -8 0
-18 -4 -21 -10z"/>
<path d="M1106 1665 c19 -29 29 -27 19 4 -3 12 -13 21 -21 21 -12 0 -12 -4 2
-25z"/>
<path d="M1143 1640 c0 -25 2 -35 4 -22 2 12 2 32 0 45 -2 12 -4 2 -4 -23z"/>
<path d="M990 1650 c0 -5 5 -10 11 -10 5 0 7 5 4 10 -3 6 -8 10 -11 10 -2 0
-4 -4 -4 -10z"/>
<path d="M1070 1626 c0 -2 7 -9 15 -16 13 -11 14 -10 9 4 -5 14 -24 23 -24 12z"/>
<path d="M1109 1476 c14 -14 27 -26 29 -26 10 0 -26 44 -39 48 -8 3 -3 -7 10
-22z"/>
<path d="M8 1363 c7 -3 16 -2 19 1 4 3 -2 6 -13 5 -11 0 -14 -3 -6 -6z"/>
<path d="M20 1310 c0 -5 7 -10 15 -10 8 0 15 5 15 10 0 6 -7 10 -15 10 -8 0
-15 -4 -15 -10z"/>
<path d="M1303 1307 c4 -10 7 -27 7 -38 0 -10 4 -19 9 -19 10 0 -3 58 -15 69
-4 3 -4 -2 -1 -12z"/>
<path d="M750 1291 c0 -6 5 -13 10 -16 6 -3 10 1 10 9 0 9 -4 16 -10 16 -5 0
-10 -4 -10 -9z"/>
<path d="M42 1228 c6 -18 28 -21 28 -4 0 9 -7 16 -16 16 -9 0 -14 -5 -12 -12z"/>
<path d="M830 1210 c0 -5 5 -10 11 -10 5 0 7 5 4 10 -3 6 -8 10 -11 10 -2 0
-4 -4 -4 -10z"/>
<path d="M1340 1206 c0 -4 9 -16 20 -28 11 -12 20 -17 20 -11 0 5 -9 18 -20
28 -11 10 -20 15 -20 11z"/>
<path d="M0 1074 c0 -8 5 -12 10 -9 6 3 10 10 10 16 0 5 -4 9 -10 9 -5 0 -10
-7 -10 -16z"/>
<path d="M1550 1000 c6 -11 20 -20 31 -20 11 0 17 5 14 10 -3 6 -13 10 -21 10
-8 0 -14 5 -14 10 0 6 -5 10 -10 10 -7 0 -7 -6 0 -20z"/>
<path d="M1606 973 c-9 -23 2 -29 20 -11 14 13 14 16 1 21 -9 3 -18 -1 -21
-10z"/>
<path d="M790 962 c0 -5 7 -15 15 -22 8 -7 15 -8 15 -2 0 5 -7 15 -15 22 -8 7
-15 8 -15 2z"/>
<path d="M1080 936 c0 -9 5 -16 10 -16 6 0 10 4 10 9 0 6 -4 13 -10 16 -5 3
-10 -1 -10 -9z"/>
<path d="M830 913 c0 -13 29 -38 35 -31 3 3 -4 13 -15 23 -11 10 -20 13 -20 8z"/>
<path d="M1560 838 c0 -4 9 -8 20 -8 13 0 20 -7 20 -19 0 -24 22 -42 39 -32
17 11 4 34 -14 27 -8 -3 -15 5 -19 18 -5 20 -46 33 -46 14z"/>
<path d="M1051 774 c0 -11 3 -14 6 -6 3 7 2 16 -1 19 -3 4 -6 -2 -5 -13z"/>
<path d="M1595 740 c8 -26 24 -42 36 -34 4 2 6 -4 5 -14 0 -9 9 -21 21 -27 13
-5 22 -14 22 -20 -4 -30 1 -35 20 -23 18 11 18 13 -12 41 -29 26 -30 28 -8 22
l24 -7 -19 26 c-11 14 -25 23 -33 20 -8 -2 -25 6 -39 18 l-24 23 7 -25z"/>
<path d="M1344 542 c17 -18 33 -32 38 -32 9 0 -17 27 -47 50 -11 8 -7 0 9 -18z"/>
<path d="M1470 511 c0 -5 7 -15 17 -22 15 -13 15 -12 4 9 -12 23 -21 28 -21
13z"/>
<path d="M1370 483 c0 -15 115 -114 118 -103 6 17 -29 61 -68 88 -34 23 -50
27 -50 15z"/>
<path d="M1054 399 c8 -43 48 -127 53 -112 3 7 -2 24 -10 40 -8 15 -18 43 -22
60 -3 18 -11 36 -17 39 -8 5 -9 -4 -4 -27z"/>
<path d="M1404 413 c3 -6 1 -13 -5 -15 -20 -7 44 -109 98 -156 54 -47 66 -66
36 -55 -14 5 -12 0 6 -20 24 -26 52 -28 31 -2 -7 8 -9 19 -5 26 5 7 13 2 24
-15 10 -14 20 -24 22 -21 3 2 3 -10 1 -28 -3 -27 4 -41 38 -80 36 -39 47 -46
75 -44 24 1 31 6 27 19 -5 21 -50 63 -58 55 -3 -3 -18 8 -31 24 -14 16 -24 32
-22 34 3 2 29 -13 59 -34 38 -26 58 -47 64 -69 7 -24 15 -32 32 -32 25 0 24
24 -2 34 -8 3 -14 13 -14 21 0 9 -7 23 -15 31 -17 17 -21 39 -5 29 15 -9 12 8
-6 33 -8 12 -12 22 -9 22 9 0 65 -60 65 -70 0 -13 81 -100 93 -100 6 0 3 8 -6
18 -10 10 -17 22 -17 26 0 18 -134 154 -146 149 -8 -3 -14 0 -14 7 0 15 -84
123 -126 164 -38 35 -79 43 -81 15 -1 -10 2 -21 8 -24 5 -4 9 -1 9 4 0 6 5 11
11 11 8 0 8 -4 -1 -15 -16 -19 -3 -38 21 -32 14 4 31 -7 58 -36 52 -56 81 -93
81 -105 0 -5 10 -16 22 -24 13 -9 19 -19 14 -27 -6 -9 -13 -5 -26 16 -24 40
-114 133 -128 133 -6 0 -16 8 -22 18 -12 18 -10 5 6 -64 5 -19 4 -25 -5 -20
-6 4 -11 13 -11 21 0 20 -33 84 -43 85 -5 0 -31 24 -59 53 -28 28 -47 47 -44
40z m326 -397 c0 -5 -7 -3 -15 4 -8 7 -15 20 -15 28 0 13 3 12 15 -4 8 -10 15
-23 15 -28z"/>
<path d="M1291 355 c1 -19 18 -51 18 -35 0 8 -4 22 -9 30 -5 8 -9 11 -9 5z"/>
<path d="M861 335 c0 -5 6 -21 14 -35 8 -14 14 -20 14 -15 0 6 -6 21 -14 35
-8 14 -14 21 -14 15z"/>
<path d="M1361 315 c0 -11 4 -27 9 -35 9 -13 10 -13 9 0 0 8 -4 24 -9 35 l-9
20 0 -20z"/>
<path d="M830 313 c0 -5 5 -15 10 -23 8 -12 10 -11 10 8 0 12 -4 22 -10 22 -5
0 -10 -3 -10 -7z"/>
<path d="M1930 278 c1 -26 47 -87 95 -127 54 -44 65 -49 65 -27 0 8 -21 32
-46 53 -26 20 -57 55 -70 75 -24 38 -44 50 -44 26z"/>
<path d="M1130 265 c0 -6 9 -28 20 -50 13 -26 20 -32 20 -20 0 11 -9 34 -20
50 -11 17 -20 25 -20 20z"/>
<path d="M1740 247 c0 -5 30 -43 66 -85 36 -42 74 -87 84 -99 10 -13 23 -23
29 -23 6 0 -9 26 -34 58 -50 64 -145 161 -145 149z"/>
<path d="M1827 193 c21 -21 53 -56 71 -78 22 -27 32 -34 32 -22 0 9 -4 17 -10
17 -5 0 -10 6 -10 13 0 16 -93 107 -110 107 -6 0 6 -17 27 -37z"/>
<path d="M1467 183 c25 -62 64 -123 84 -134 10 -5 19 -19 19 -29 0 -15 7 -20
26 -20 l25 0 -18 31 c-10 17 -35 47 -56 67 -20 20 -46 56 -58 80 -26 52 -44
56 -22 5z"/>
<path d="M1920 138 c0 -9 6 -21 13 -25 8 -4 27 -32 43 -60 18 -32 36 -53 46
-53 15 0 16 4 6 25 -6 14 -15 25 -20 25 -4 0 -8 5 -8 11 0 6 -9 22 -20 36 -11
14 -17 30 -13 36 4 7 0 8 -12 3 -11 -4 -22 -2 -27 6 -6 10 -8 9 -8 -4z"/>
<path d="M1137 123 c-3 -5 3 -20 14 -33 12 -17 19 -20 18 -10 0 20 -26 54 -32
43z"/>
<path d="M1575 120 c3 -5 8 -10 11 -10 2 0 4 5 4 10 0 6 -5 10 -11 10 -5 0 -7
-4 -4 -10z"/>
<path d="M2040 91 c0 -18 54 -91 67 -91 9 0 5 11 -12 35 -15 19 -24 38 -21 44
3 5 -1 12 -10 15 -21 8 -24 8 -24 -3z"/>
<path d="M2090 81 c0 -19 70 -81 92 -81 20 0 18 6 -24 45 -45 43 -68 55 -68
36z"/>
<path d="M885 51 c-8 -14 3 -51 16 -51 5 0 6 12 3 28 -8 34 -10 36 -19 23z"/>
<path d="M2170 56 c0 -2 7 -9 15 -16 13 -11 14 -10 9 4 -5 14 -24 23 -24 12z"/>
</g>
</svg>
